# xmcd
#
# Track frame offsets: 
#        150
#        29815
#        57797
#
# Disc length: 1121 seconds
#
# Revision: 0
# Processed by: cddbd v1.5.2PL0 Copyright (c) Steve Scherf et al.
# Submitted via: ExactAudioCopy v0.95b4
#
DISCID=23045f03
DTITLE=Various Artist - MAHARAJA NIGHT VOL.15 BONUS CD
DYEAR=1995
DGENRE=Dance
TTITLE0=ROXANNE - LOVE LOVE FIRE (T.Y.M. P REMIX)
TTITLE1=LOU GRANT - MAHARAJA NIGHT (T.Y.M. REMIX)
TTITLE2=JILLY - DING A LING (T.Y.M. REMIX)
EXTD=
EXTT0=
EXTT1=
EXTT2=
PLAYORDER=
